<svg xmlns="http://www.w3.org/2000/svg" width="54" height="42" viewBox="0 0 54 42" fill="none">
<mask id="mask0_9_14" style="mask-type:alpha" maskUnits="userSpaceOnUse" x="8" y="19" width="12" height="12">
<rect x="8" y="19" width="12" height="12" fill="#D9D9D9"/>
</mask>
<g mask="url(#mask0_9_14)">
<path d="M14 25C13.45 25 12.9792 24.8042 12.5875 24.4125C12.1958 24.0208 12 23.55 12 23C12 22.45 12.1958 21.9792 12.5875 21.5875C12.9792 21.1958 13.45 21 14 21C14.55 21 15.0208 21.1958 15.4125 21.5875C15.8042 21.9792 16 22.45 16 23C16 23.55 15.8042 24.0208 15.4125 24.4125C15.0208 24.8042 14.55 25 14 25ZM10 29V27.6C10 27.3167 10.073 27.0562 10.219 26.8185C10.3647 26.5812 10.5583 26.4 10.8 26.275C11.3167 26.0167 11.8417 25.8228 12.375 25.6935C12.9083 25.5645 13.45 25.5 14 25.5C14.55 25.5 15.0917 25.5645 15.625 25.6935C16.1583 25.8228 16.6833 26.0167 17.2 26.275C17.4417 26.4 17.6353 26.5812 17.781 26.8185C17.927 27.0562 18 27.3167 18 27.6V29H10ZM11 28H17V27.6C17 27.5083 16.9772 27.425 16.9315 27.35C16.8855 27.275 16.825 27.2167 16.75 27.175C16.3 26.95 15.8458 26.7812 15.3875 26.6685C14.9292 26.5562 14.4667 26.5 14 26.5C13.5333 26.5 13.0708 26.5562 12.6125 26.6685C12.1542 26.7812 11.7 26.95 11.25 27.175C11.175 27.2167 11.1147 27.275 11.069 27.35C11.023 27.425 11 27.5083 11 27.6V28ZM14 24C14.275 24 14.5105 23.902 14.7065 23.706C14.9022 23.5103 15 23.275 15 23C15 22.725 14.9022 22.4897 14.7065 22.294C14.5105 22.098 14.275 22 14 22C13.725 22 13.4897 22.098 13.294 22.294C13.098 22.4897 13 22.725 13 23C13 23.275 13.098 23.5103 13.294 23.706C13.4897 23.902 13.725 24 14 24Z" fill="#1C1B1F"/>
</g>
<mask id="mask1_9_14" style="mask-type:alpha" maskUnits="userSpaceOnUse" x="14" y="0" width="40" height="42">
<rect x="14" width="39.6667" height="42" fill="#D9D9D9"/>
</mask>
<g mask="url(#mask1_9_14)">
<path d="M33.8333 21C32.0153 21 30.4589 20.3146 29.1642 18.9438C27.8695 17.5729 27.2222 15.925 27.2222 14C27.2222 12.075 27.8695 10.4271 29.1642 9.05625C30.4589 7.68542 32.0153 7 33.8333 7C35.6514 7 37.2077 7.68542 38.5024 9.05625C39.7971 10.4271 40.4444 12.075 40.4444 14C40.4444 15.925 39.7971 17.5729 38.5024 18.9438C37.2077 20.3146 35.6514 21 33.8333 21ZM20.6111 35V30.1C20.6111 29.1083 20.8524 28.1966 21.335 27.3648C21.8165 26.5341 22.4567 25.9 23.2555 25.4625C24.9634 24.5583 26.6988 23.8799 28.4618 23.4273C30.2247 22.9758 32.0153 22.75 33.8333 22.75C35.6514 22.75 37.4419 22.9758 39.2048 23.4273C40.9678 23.8799 42.7032 24.5583 44.4111 25.4625C45.2099 25.9 45.8501 26.5341 46.3316 27.3648C46.8142 28.1966 47.0555 29.1083 47.0555 30.1V35H20.6111ZM23.9166 31.5H43.75V30.1C43.75 29.7792 43.6745 29.4875 43.5235 29.225C43.3715 28.9625 43.1715 28.7583 42.9236 28.6125C41.4361 27.825 39.9348 27.2341 38.4198 26.8398C36.9047 26.4466 35.3759 26.25 33.8333 26.25C32.2907 26.25 30.7619 26.4466 29.2468 26.8398C27.7318 27.2341 26.2305 27.825 24.743 28.6125C24.4951 28.7583 24.2957 28.9625 24.1447 29.225C23.9927 29.4875 23.9166 29.7792 23.9166 30.1V31.5ZM33.8333 17.5C34.7423 17.5 35.5208 17.157 36.1687 16.471C36.8155 15.7862 37.1389 14.9625 37.1389 14C37.1389 13.0375 36.8155 12.2138 36.1687 11.529C35.5208 10.843 34.7423 10.5 33.8333 10.5C32.9243 10.5 32.1464 10.843 31.4996 11.529C30.8517 12.2138 30.5278 13.0375 30.5278 14C30.5278 14.9625 30.8517 15.7862 31.4996 16.471C32.1464 17.157 32.9243 17.5 33.8333 17.5Z" fill="#1C1B1F"/>
</g>
<rect x="2" y="18" width="2" height="13" fill="black"/>
<rect x="4" y="18" width="2" height="20" transform="rotate(-90 4 18)" fill="black"/>
<rect x="2" y="36" width="4" height="17" transform="rotate(-90 2 36)" fill="black"/>
<path d="M24 16L25 18H24V16Z" fill="black"/>
<path d="M2 36L-6.01226e-08 32H2L2 36Z" fill="black"/>
<path d="M2 18C2 16.8954 2.89543 16 4 16V16V18H2V18Z" fill="black"/>
</svg>